<?xml version="1.0" encoding="UTF-8" standalone="no"?>
<!-- Created with Inkscape (http://www.inkscape.org/) -->

<svg
   version="1.1"
   id="svg2"
   xml:space="preserve"
   width="38pt"
   height="38pt"
   viewBox="0 0 50.666668 50.666668"
   sodipodi:docname="logo.svg"
   inkscape:version="1.1.2 (b8e25be833, 2022-02-05)"
   inkscape:export-filename="C:\Users\gonca\Documents\Projects\github\bonsai-rx\harp\Resources\Harp.png"
   inkscape:export-xdpi="12.454054"
   inkscape:export-ydpi="12.454054"
   xmlns:inkscape="http://www.inkscape.org/namespaces/inkscape"
   xmlns:sodipodi="http://sodipodi.sourceforge.net/DTD/sodipodi-0.dtd"
   xmlns="http://www.w3.org/2000/svg"
   xmlns:svg="http://www.w3.org/2000/svg"
   xmlns:rdf="http://www.w3.org/1999/02/22-rdf-syntax-ns#"
   xmlns:cc="http://creativecommons.org/ns#"
   xmlns:dc="http://purl.org/dc/elements/1.1/"><metadata
     id="metadata8"><rdf:RDF><cc:Work
         rdf:about=""><dc:format>image/svg+xml</dc:format><dc:type
           rdf:resource="http://purl.org/dc/dcmitype/StillImage" /></cc:Work></rdf:RDF></metadata><defs
     id="defs6" /><sodipodi:namedview
     pagecolor="#ffffff"
     bordercolor="#666666"
     borderopacity="1"
     objecttolerance="10"
     gridtolerance="10"
     guidetolerance="10"
     inkscape:pageopacity="0"
     inkscape:pageshadow="2"
     inkscape:window-width="2560"
     inkscape:window-height="1334"
     id="namedview4"
     showgrid="false"
     inkscape:zoom="7.6540539"
     inkscape:cx="28.08969"
     inkscape:cy="49.777543"
     inkscape:window-x="-11"
     inkscape:window-y="-11"
     inkscape:window-maximized="1"
     inkscape:current-layer="g10"
     inkscape:pagecheckerboard="0"
     units="pt"
     inkscape:document-units="pt" /><g
     id="g10"
     inkscape:groupmode="layer"
     inkscape:label="HarpLogoSmall"
     transform="matrix(1.3333333,0,0,-1.3333333,0,986.66667)"><g
       id="g826"
       transform="matrix(0.05198359,0,0,0.05198359,-0.20793603,701.09031)"><path
         style="fill:#029fe3;fill-opacity:1;fill-rule:nonzero;stroke:none;stroke-width:1.33333"
         d="M 5.3339844,258.66602 V 273.33398 302.66602 368 590.66602 H 77.333984 V 508 489.33398 484 481.33398 478.66602 L 77.628906,477.33398 77.851562,476 78.371094,473.33398 78.666016,470.66602 78.962891,468 79.222656,466.66602 80,464 80.443359,462.66602 81.333984,460 81.888672,458.66602 83.222656,456 84,454.66602 85.888672,452 88,449.33398 89.333984,448.03711 92,445.66602 93.333984,444.62891 94.666016,444 l 2.667968,-1.62891 1.332032,-0.70507 2.667964,-1.14649 2.66602,-0.92773 2.66602,-0.66602 1.33398,-0.25976 2.66602,-0.51758 1.33398,-0.29688 2.66602,-0.29492 2.66796,0.29492 1.33204,0.29688 1.33398,0.22265 1.33398,0.29493 1.33204,0.0762 2.66796,0.48047 1.33204,0.36914 2.66796,0.96484 2.66602,1.33203 2.66602,1.70313 2.66796,2.03711 2.55469,2.4082 2.14844,2.62891 0.62891,1.33398 0.96289,1.33398 1.18554,2.66602 0.92774,2.66602 0.40625,1.33398 0.33203,1.33398 0.66797,2.66602 0.33203,1.33398 0.4082,2.66602 0.0742,1.33398 L 148,472 v 1.33398 4 13.33204 100 h 73.33398 V 488 v -26.66602 -8 -2.66796 l -0.0371,-1.33204 L 221.22266,448 220.81445,445.33398 220.51953,444 220,441.33398 219.92578,440 l -0.44531,-2.66602 -0.81445,-2.66796 -0.18555,-1.33204 L 218.14844,432 217.33398,429.33398 216.88867,428 216,425.33398 215.11133,422.66602 214.62891,421.33398 214.14844,420 212.96289,417.33398 212.22266,416 l -0.74219,-1.33398 -0.85156,-1.33204 -1.81446,-2.66796 -1,-1.33204 -2,-2.66796 -1,-1.33204 -2.25781,-2.66796 -2.55664,-2.55469 -2.66602,-2.25977 -1.33398,-1 -2.66602,-2 -1.33398,-1 -1.33398,-0.92578 L 188,391.18555 186.66602,390.44336 185.33398,389.70312 184,389.11133 181.33398,388 180,387.48047 177.33398,386.4082 176,385.85156 173.33398,384.88867 170.66602,384 168,383.22266 165.33398,382.66602 162.66602,382.14844 160,381.62891 158.66602,381.44336 156,381.33398 h -2.66602 -2.66796 L 148,380.81445 l -2.66602,-0.40625 -2.66796,0.14844 -2.66602,0.48047 -2.66602,0.29687 H 134.66602 132 130.66602 L 128,381.44336 125.33398,381.85156 124,382.18555 121.33398,382.85156 120,383.14844 118.66602,383.51953 117.33398,384 114.66602,384.51953 112,385.37109 110.66602,385.85156 108,387 l -1.33398,0.70312 -1.33204,0.59376 -1.33398,0.74023 -1.33398,0.5918 -1.33204,0.74218 L 100,391 97.333984,392.51953 96,393.37109 l -2.666016,1.85157 -2.667968,2.2207 L 88,400 l -2.666016,2.66602 -2.667968,2.66796 -5.332032,5.33204 V 269.33398 258.66602 h -2.742187 z m 355.9999956,120 -2.66796,0.11132 -1.33204,0.18555 L 356,379.18555 353.33398,379.70312 352,380 l -2.66602,0.11133 -2.66796,0.4082 L 344,381.07422 341.33398,381.5918 340,381.88867 337.33398,382.66602 336,383.11133 333.33398,384 l -2.66796,0.88867 -1.33204,0.48242 -1.33398,0.48047 -2.66602,1.07422 -1.33398,0.59375 -1.33398,0.55469 -2.66602,1.33398 -1.33398,0.77735 -1.33204,0.70312 -1.33398,0.77735 -1.33398,0.66796 -2.66602,1.51758 -2.66602,1.74024 -2.66796,1.92773 -1.33204,1.14649 -2.66796,1.85351 -1.33204,1.10938 -2.66796,2.37109 -1.33204,1.33398 -2.66796,2.14649 -2.66602,2.14844 -1.03711,1.14843 -1.11133,1.25977 -1.03711,1.29687 -2.22265,2.66602 -1.25782,1.33398 -2.11132,2.66602 -0.96485,1.33398 -1.81445,2.66602 -1.77734,2.66602 -0.81446,1.33398 -1.51758,2.66602 -0.63086,1.33398 -1.33203,2.66602 -0.74218,1.33398 -0.5918,1.33398 -0.70313,1.33204 -1.14843,2.66796 -0.51953,1.33204 -0.44336,1.33398 -0.88868,2.66602 -0.89062,2.66796 -0.44336,1.33204 -0.81445,2.66796 -0.51953,1.33204 -0.51758,2.66796 -0.40625,1.33204 -0.81641,2.66796 -0.36914,1.33204 L 264,465.33398 263.88867,468 l -0.18555,1.33398 -0.51757,2.66602 -0.51953,2.66602 V 476 477.33398 480 v 6.66602 8 2.66796 1.33204 V 500 l 0.51953,2.66602 0.29492,1.33398 0.26172,1.33398 0.51562,2.66602 0.26172,1.33398 0.29492,1.33204 0.44336,2.66796 0.0762,1.33204 0.51758,2.66796 0.33399,1.33204 0.29492,1.33398 0.70508,2.66602 L 267.5918,524 268,525.33398 268.88867,528 l 0.88867,2.66602 0.44532,1.33398 0.44336,1.33398 0.51953,1.33204 1.14843,2.66796 0.70313,1.33204 1.33398,2.66796 L 275,542.66602 275.77734,544 276.51953,545.33398 278.22266,548 280,550.66602 280.92578,552 l 0.92578,1.33398 0.81446,1.33204 1.14843,1.33398 2.03711,2.66602 2.14844,2.66796 1.33398,1.33204 1.33204,1.33398 2.66796,2.66602 2.66602,2.66796 1.33398,1.33204 1.33204,1.33398 2.66796,2.14844 1.33204,1 2.66796,2.18554 1.33204,0.81446 2.66796,1.85156 2.66602,1.77734 2.66602,1.70313 2.66796,1.51953 1.33204,0.62891 2.66796,1.33398 L 324,588.29688 325.33398,589 328,590.14844 l 1.33398,0.51758 1.33204,0.44531 2.66796,0.88867 2.66602,0.88867 1.33398,0.44531 2.66602,0.77735 1.33398,0.29687 2.66602,0.51758 2.66602,0.55469 2.66796,0.51953 2.66602,0.11133 1.33398,0.18555 2.66602,0.51757 1.33398,0.22266 1.33204,0.29687 h 2.66796 1.33204 1.33398 2.66602 2.66796 1.33204 2.66796 L 376,596.81445 377.33398,596.51953 380,596.07422 381.33398,596 384,595.48047 l 2.66602,-0.55469 2.66796,-0.51758 1.33204,-0.29687 2.66796,-0.77735 1.33204,-0.44531 1.33398,-0.44531 2.66602,-0.96289 1.33398,-0.55469 2.66602,-1.07422 2.66796,-1.07422 1.33204,-0.6289 2.66796,-1.48242 1.33204,-0.81446 2.66796,-1.6289 1.33204,-0.85157 2.66796,-2.03711 2.66602,-2.66796 1.33398,-1.33204 2.66602,-2.66796 5.33398,-5.33204 v 21.33204 h 73.33204 V 385.33398 h -73.33204 v 20 l -1.96289,-2.22265 -2.14843,-2.07422 -1.25977,-1.03711 -2.62891,-2.55664 -2.66796,-2.25781 -1.33204,-1 -2.66796,-1.96289 -1.33204,-0.96485 -2.66796,-1.59179 -1.33204,-0.62891 -2.66796,-1.33399 L 405.33398,387 402.66602,385.85156 401.33398,385.37109 400,384.88867 397.33398,384 394.66602,383.18555 392,382.66602 l -1.33398,-0.51758 -1.33204,-0.40625 -2.66796,-0.81641 -1.33204,-0.36914 -2.66796,-0.48242 -1.33204,-0.0742 -2.66796,-0.51953 -1.33204,-0.29492 -2.66796,-0.40821 -1.33204,-0.0742 -2.66796,-0.0371 H 369.33398 366.66602 364 362.66602 Z m 506.66602,0 -2.66602,0.0371 -1.33398,0.0742 -2.66602,0.40821 -1.33398,0.334 -1.33398,0.48047 -1.33204,0.18555 -2.66796,0.6289 -1.33204,0.25977 -1.33398,0.25976 -2.66602,0.55469 -2.66796,0.77735 -1.33204,0.44531 -2.66796,0.92578 -1.33204,0.48242 -2.66796,1.14649 -1.33204,0.70507 -2.66796,1.33203 -1.33204,0.59376 L 832,389.03711 830.66602,389.66602 828,391.18555 826.66602,392.03711 824,393.88867 821.33398,396.11133 820,397.37109 817.33398,400 816,401.33398 813.77734,404 812.48047,406 812,408 811.03711,406 811,405.33398 810.66602,404 V 402.66602 401.33398 400 v -2.66602 -12 H 797.33398 776 769.33398 760 h -10.66602 -12 V 392 402.66602 693.33398 H 758.66602 768 792 793.33398 800 810.66602 v -2.66796 -1.33204 -6.66796 -112 l 2.66796,2.74218 1.33204,1.33399 2.66796,2.59179 1.33204,1.33204 2.66796,2.14843 1.33204,1 1.33398,1.03711 2.66602,1.89063 2.66796,1.59179 1.33204,0.62891 2.66796,1.33399 1.33204,0.70312 2.66796,1.14844 1.33204,0.51758 1.33398,0.44531 1.33398,0.44531 2.66602,0.88672 4,1.33398 1.33398,0.44532 2.66602,0.85156 1.33398,0.36914 L 856,596 l 1.33398,0.0742 1.33204,0.22266 1.33398,0.22265 1.33398,0.29492 L 864,597.33398 H 865.33398 868 869.33398 872 876 877.33398 880 881.33398 L 884,596.81445 l 1.33398,-0.29492 2.66602,-0.4082 1.33398,-0.0742 L 892,596 l 1.33398,-0.29688 1.33204,-0.22265 2.66796,-0.55469 2.66602,-0.51758 1.33398,-0.29687 1.33204,-0.36914 2.66796,-0.85352 1.33204,-0.44531 2.66796,-0.96289 1.33204,-0.55469 2.66796,-1.07422 2.66602,-1.03711 1.33398,-0.59179 1.33204,-0.55664 L 920,586.96289 921.33398,586.33398 924,584.81445 925.33398,584 l 1.33204,-0.88867 1.33398,-0.88867 2.66602,-1.7793 2.66796,-1.77734 1.33204,-0.92383 1.33398,-0.96485 2.66602,-2.11132 2.66796,-2.14649 1.33204,-1.03906 2.66796,-2.14649 2.55469,-2.66796 2.25977,-2.66602 1.03711,-1.33398 2.14843,-2.66602 1.25782,-1.33398 2.18554,-2.66602 0.96485,-1.33398 1.81445,-2.66602 1.74024,-2.66602 0.85156,-1.33398 1.51758,-2.66602 0.63086,-1.33398 1.33203,-2.66602 1.33398,-2.66796 0.70313,-1.33204 0.55664,-1.33398 0.59179,-1.33398 1.03711,-2.66602 1.03711,-2.66602 0.51953,-1.33398 0.36914,-1.33398 0.74219,-2.66602 0.40625,-1.33398 0.81641,-2.66602 0.40625,-1.33398 0.51758,-2.66602 0.48242,-1.33398 0.33203,-1.33204 0.4082,-2.66796 L 976,508 v -1.33398 L 976.51953,504 l 0.29492,-1.33398 0.40821,-2.66602 0.0742,-1.33398 0.0371,-1.33204 V 494.66602 488 v -4 -2.66602 l -0.0371,-2.66796 -0.0742,-1.33204 -0.40821,-2.66796 L 976.29688,472 976,470.66602 975.88867,468 l -0.18555,-1.33398 -0.22265,-1.33204 -0.55469,-2.66796 L 974.4082,460 974.14844,458.66602 973.81445,457.33398 973.33398,456 972.81445,453.33398 972.4082,452 972,450.66602 971.11133,448 970.62891,446.66602 970.14844,445.33398 969.5918,444 l -1.07227,-2.66602 -1.03906,-2.66796 -0.5918,-1.33204 L 966.29688,436 965.55664,434.66602 964,432 963.18555,430.66602 961.5918,428 960.81445,426.66602 959.07422,424 957.14844,421.33398 956,420 l -0.85156,-1.33398 -1,-1.33204 -2.25977,-2.66796 -1.25976,-1.33204 L 948,410.66602 946.66602,409.33398 945.33398,408 l -2.66796,-2.55664 -1.33204,-1.14648 -1.33398,-1.11133 -2.66602,-2.11133 -2.66796,-2.14844 -1.33204,-1.03711 L 932,396.92578 929.33398,395.18555 928,394.4082 l -2.66602,-1.59375 -2.66796,-1.6289 -1.33204,-0.74219 L 920,389.66602 918.66602,389.03711 917.33398,388.33398 916,387.77734 914.66602,387.18555 912,386.14844 909.33398,385.07422 908,384.51953 906.66602,384.03711 904,383.18555 902.66602,382.85156 900,382.18555 l -1.33398,-0.3711 -1.33204,-0.29492 -2.66796,-0.66797 -1.33204,-0.33203 -2.66796,-0.4082 L 888,380 886.66602,379.70312 884,379.18555 l -1.33398,-0.22266 -1.33204,-0.18555 -2.66796,-0.11132 H 877.33398 876 h -4 -2.66602 z m -182.66602,4 -2.66796,0.0371 -1.33204,0.0742 -2.66796,0.40821 -1.33204,0.29492 L 674.66602,384 672,384.11133 l -2.66602,0.44531 -2.66796,0.77734 -1.33204,0.44336 -2.66796,0.88868 -2.66602,0.89062 -1.33398,0.48047 -1.33204,0.48242 -1.33398,0.5918 -1.33398,0.55469 -1.33204,0.70507 L 652,391 l -2.66602,1.51953 -2.66796,1.73828 -1.33204,0.96485 -2.66796,2.11132 -2.66602,2.14649 -1.33398,1.03906 -1.33204,1.10938 -1.0371,1.14843 -1.11133,1.25977 -2.11133,2.62891 -2.14844,2.66796 -1.03711,1.33204 -0.96289,1.33398 -1.70312,2.66602 -0.70313,1.33398 -0.48242,0.66602 -0.70313,2 -0.96289,-2 L 624.33398,416 624,414.66602 V 413.33398 412 v -2.66602 -4 -20 H 605.33398 552 v 205.33204 h 72 V 524 v -14.66602 -2.66796 -1.33204 -2.66796 -1.33204 l 0.51953,-2.66796 0.29492,-1.33204 0.40821,-2.66796 0.0742,-1.33204 L 625.33398,492 V 489.33398 488 l 0.51758,-2.66602 0.29688,-1.33398 0.25976,-1.33398 0.51758,-2.66602 0.29688,-1.33398 0.36914,-1.33204 0.92773,-2.66796 0.5918,-1.33204 0.55469,-1.33398 0.70507,-1.33398 0.62891,-1.33204 1.51953,-2.66796 1.73828,-2.66602 0.96485,-1.33398 1.07422,-1.33204 L 637.33398,460 640,457.33398 642.66602,454.77734 644,453.66602 645.33398,452.62891 648,451 l 1.33398,-0.62891 1.33204,-0.70507 1.33398,-0.55469 1.33398,-0.5918 2.66602,-0.92773 1.33398,-0.36914 1.33204,-0.29688 2.66796,-0.51758 1.33204,-0.25976 1.33398,-0.29688 2.66602,-0.4082 1.33398,-0.0723 1.33398,-0.0371 H 672 h 4 2.66602 l 2.66796,0.10938 2.66602,0.4082 1.33398,0.29688 2.66602,0.51758 2.66602,0.51953 2.66796,0.81445 1.33204,0.22266 1.33398,0.36914 1.33398,0.51953 2.66602,1.03711 2.5918,0.96289 0.74218,0.29687 2,0.5918 v -2 -67.33398 h -14.66796 -4 z M 384,441.33398 l 1.33398,0.0371 1.33204,0.0723 2.66796,0.4082 1.33204,0.29688 2.66796,0.51758 1.33204,0.0762 2.66796,0.44336 L 400,444 l 1.33398,0.22266 1.33204,0.36914 1.33398,0.74218 1.33398,0.36914 2.66602,1.48243 2.66602,1.74023 1.33398,0.92578 1.33398,1 2.62891,2 1.25977,1 2.25781,2.25977 2.11133,2.55469 2.11132,2.66796 1,1.33204 1.63086,2.66796 0.62891,1.33204 0.70313,1.33398 0.33398,1.33398 0.74219,1.33204 0.59179,2.66796 0.48047,1.33204 0.33399,1.33398 0.25976,1.33398 0.51758,2.66602 0.55469,2.66602 0.4082,2.66796 0.0742,2.66602 -0.0742,1.33398 -0.4082,2.66602 -0.29492,1.33398 L 430.66602,496 430.5918,497.33398 430.14844,500 429.33398,502.66602 429.11133,504 428.74219,505.33398 428,506.66602 427.66602,508 l -0.70313,1.33398 -0.62891,1.33204 -1.59179,2.66796 -0.96485,1.33204 -1.96289,2.66796 -1,1.33204 -2.25781,2.66796 -2.55664,2.14649 -1.33398,1 -1.33204,1.03906 -2.66796,1.88867 -1.33204,0.77735 L 408,529 l -1.33398,0.62891 -1.33204,0.70507 -2.66796,1.07422 -1.33204,0.36914 -1.33398,0.40821 -2.66602,0.6289 -2.66796,0.51953 -2.66602,0.29493 -2.66602,0.51953 -2.66796,0.51758 H 384 381.33398 L 378.66602,534.14844 376,533.5918 374.66602,533.33398 372,532.77734 370.66602,532.4082 368,531.55664 l -1.33398,-0.44531 -2.66602,-1 -2.66602,-1.33399 L 360,528 357.33398,526.11133 354.66602,524 353.33398,522.66602 350.66602,520 348.55664,517.33398 347.5918,516 345.85156,513.33398 345.11133,512 l -0.77735,-1.33398 -0.63086,-1.33204 -1.33203,-2.66796 -0.70507,-1.33204 -1.07422,-2.66796 -0.77735,-2.66602 -0.29492,-1.33398 -0.33398,-1.33204 -0.51953,-2.66796 V 492 490.66602 488 485.33398 484 481.33398 l 0.51953,-2.66796 0.33398,-1.33204 0.29492,-1.33398 0.77735,-2.66602 1.07422,-2.66796 0.70507,-1.33204 1.33203,-2.66796 0.63086,-1.33204 1.51758,-2.66796 0.81446,-1.33204 1.89062,-2.66796 L 350.66602,456 352,454.66602 l 2.66602,-2.55469 2.66796,-2.22266 1.33204,-0.96289 2.66796,-1.70312 1.33204,-0.55664 1.33398,-0.77735 2.66602,-1 L 368,444.44336 370.66602,443.5918 372,443.22266 373.33398,442.92578 376,442.4082 l 2.66602,-0.55664 2.66796,-0.4082 z m 470.66602,0 H 856 l 2.66602,0.10938 2.66796,0.4082 1.33204,0.29688 1.33398,0.22265 2.66602,0.3711 1.33398,0.2207 1.33398,0.25977 1.33204,0.36914 2.66796,0.92773 2.66602,1.18359 1.33398,0.74024 2.66602,1.59375 2.66602,1.85156 2.66796,2.22266 2.66602,2.55469 2.55664,2.66796 1.14648,1.33204 1.07422,1.33398 0.96485,1.33398 1.73828,2.66602 0.74219,1.33398 0.74023,1.33204 0.59375,1.33398 0.5918,1.33398 0.92578,2.66602 0.40625,1.33398 0.33398,1.33204 0.66602,2.66796 0.33398,1.33204 0.40821,2.66796 0.0742,1.33204 0.0371,2.66796 V 488 v 2.66602 l -0.0371,2.66796 -0.0742,1.33204 -0.40821,2.66796 -0.33398,1.33204 -0.66602,2.66796 -0.33398,1.33204 -0.40625,1.33398 -0.92578,2.66602 -0.5918,1.33398 -0.59375,1.33398 -0.74023,1.33204 -0.74219,1.33398 -1.73828,2.66602 -0.96485,1.33398 -1.07422,1.33398 -1.14648,1.33204 L 888,521.33398 885.33398,524 884,525.33398 881.33398,527.37109 880,528.18555 877.33398,529.62891 876,530.33398 873.33398,531.48047 872,532 l -2.66602,0.88867 -1.33398,0.44531 -2.66602,0.77735 -1.33398,0.25976 -1.33398,0.29493 H 860 858.66602 856 853.33398 852 850.66602 848 l -1.33398,-0.29493 -1.33204,-0.25976 -2.66796,-0.77735 -2.66602,-0.89062 -2.66602,-0.96289 -2.66796,-1.14649 -1.33204,-0.70507 L 832,529 l -1.33398,-0.81445 -1.33204,-0.77735 -2.66796,-1.88867 -1.33204,-1.03906 -1.33398,-1 -2.66602,-2.14649 -2.14843,-2.66796 -1,-1.33204 -1.96289,-2.66796 -0.96485,-1.33204 -1.59179,-2.66796 -0.62891,-1.33204 L 812.33398,508 811.81445,506.66602 811.25781,505.33398 810.88867,504 810.48047,502.66602 809.85156,500 809.33398,497.33398 809.22266,494.66602 808.81445,492 808.51953,490.66602 808.22266,488 l 0.29687,-2.66602 0.29492,-1.33398 0.40821,-2.66602 0.11132,-1.33398 0.29493,-2.66602 0.25976,-1.33398 0.77735,-2.66602 0.44531,-1.33398 0.44531,-1.33398 0.96289,-2.66602 0.5918,-1.33398 0.59179,-1.33204 0.77735,-1.33398 0.77734,-1.33398 1.89063,-2.66602 1.03711,-1.33398 1,-1.33204 2.14843,-2.55664 2.66602,-2.25781 1.33398,-1 L 828,449.55664 829.33398,448.5918 832,447 l 2.66602,-1.33398 1.33398,-0.55469 1.33398,-0.5918 2.66602,-0.92773 1.33398,-0.36914 1.33204,-0.29688 2.66796,-0.51758 2.66602,-0.55664 2.66602,-0.4082 1.33398,-0.0723 z"
         transform="matrix(0.75000002,0,0,-0.75000002,0,740.00002)"
         id="path14" /><path
         d="m 638,273 v -51 h 7 4 4 2 10 5 3 6 1 11 5 8 4 5 4 5 5 8 v 51 h -6 -1 -10 -8 -2 -3 -6 -1 -4 -6 -2 -5 -4 -1 -4 -5 -5 -6 -13 -5 M 4,272 v -51 h 520 v 51 H 520.944 519 517 398 315 231 4"
         style="fill:#029fe3;fill-opacity:1;fill-rule:nonzero;stroke:none"
         id="path18"
         inkscape:connector-curvature="0" /></g></g></svg>
